<svg id="Calque_1" data-name="Calque 1" xmlns="http://www.w3.org/2000/svg" xmlns:xlink="http://www.w3.org/1999/xlink" viewBox="0 0 925.61 241.96"><defs><style>.cls-1{fill:#263138;}.cls-2{fill:url(#Dégradé_sans_nom_19);}</style><linearGradient id="Dégradé_sans_nom_19" x1="29.7" y1="150.46" x2="308.87" y2="150.46" gradientUnits="userSpaceOnUse"><stop offset="0" stop-color="#a8acb7"/><stop offset="0.16" stop-color="#d8dce7"/><stop offset="0.21" stop-color="#bfc3ce"/><stop offset="0.28" stop-color="#a0a4b0"/><stop offset="0.34" stop-color="#8e929e"/><stop offset="0.39" stop-color="#878b97"/><stop offset="0.47" stop-color="#c8cdd7"/><stop offset="0.49" stop-color="#a4a8b2"/><stop offset="0.53" stop-color="#777b84"/><stop offset="0.56" stop-color="#545760"/><stop offset="0.59" stop-color="#3b3d46"/><stop offset="0.62" stop-color="#2b2d36"/><stop offset="0.64" stop-color="#262831"/><stop offset="0.79" stop-color="#4e525d"/><stop offset="1" stop-color="#2d3039"/></linearGradient></defs><path class="cls-1" d="M363.62,179.46A44.72,44.72,0,0,1,361,195.2a34,34,0,0,1-7.36,11.89,31.87,31.87,0,0,1-11.39,7.52,39.64,39.64,0,0,1-14.64,2.61H300.05V141.76h27.57a39.64,39.64,0,0,1,14.64,2.61,31.87,31.87,0,0,1,11.39,7.52A34.05,34.05,0,0,1,361,163.78,44.57,44.57,0,0,1,363.62,179.46Zm-5.65,0a42.09,42.09,0,0,0-2.19-14.08,29.31,29.31,0,0,0-6.18-10.45,26.64,26.64,0,0,0-9.6-6.51,33.14,33.14,0,0,0-12.38-2.24H305.54V212.8h22.08A33.14,33.14,0,0,0,340,210.56a26.51,26.51,0,0,0,9.6-6.51,29.31,29.31,0,0,0,6.18-10.45A42.28,42.28,0,0,0,358,179.46Z" transform="translate(-29.7 -29.48)"/><path class="cls-1" d="M433.17,217.22h-4.69a3.44,3.44,0,0,1-1.52-.29,3,3,0,0,1-1.15-1.09L401.6,185.22a8.17,8.17,0,0,0-.88-1,3.47,3.47,0,0,0-1-.67,5.05,5.05,0,0,0-1.33-.34,14.25,14.25,0,0,0-1.89-.11h-9.87v34.13h-5.49V141.76h19.3q13,0,19.5,5t6.48,14.8a20.17,20.17,0,0,1-1.5,7.89,18.45,18.45,0,0,1-4.29,6.27,22.57,22.57,0,0,1-6.77,4.4,32,32,0,0,1-8.94,2.29,8.71,8.71,0,0,1,2.3,2.13ZM399.68,179a31,31,0,0,0,9-1.2,19.38,19.38,0,0,0,6.72-3.44,14.81,14.81,0,0,0,4.19-5.39,16.85,16.85,0,0,0,1.44-7.09q0-8.05-5.25-11.95t-15.34-3.89H386.61v33Z" transform="translate(-29.7 -29.48)"/><path class="cls-1" d="M451.36,217.22h-5.49V141.76h5.49Z" transform="translate(-29.7 -29.48)"/><path class="cls-1" d="M531,217.22h-4.21a1.89,1.89,0,0,1-1.23-.39,2.72,2.72,0,0,1-.75-1.05L516,193.86H478.93l-8.85,21.92a2.25,2.25,0,0,1-.75,1,2,2,0,0,1-1.28.42h-4.16l30.88-75.46h5.39Zm-16.69-27.41L499,151.68a37.68,37.68,0,0,1-1.55-4.48c-.21.85-.45,1.66-.69,2.42s-.52,1.47-.8,2.11l-15.36,38.08Z" transform="translate(-29.7 -29.48)"/><path class="cls-1" d="M585.17,146.4h-26.5v70.82h-5.5V146.4H526.51v-4.64h58.66Z" transform="translate(-29.7 -29.48)"/><path class="cls-1" d="M603.36,217.22h-5.49V141.76h5.49Z" transform="translate(-29.7 -29.48)"/><path class="cls-1" d="M680.11,204.53a1.29,1.29,0,0,1,.91.37l2.13,2.3a36.12,36.12,0,0,1-5.09,4.5,30.86,30.86,0,0,1-6,3.42,35.45,35.45,0,0,1-7.2,2.18,44.22,44.22,0,0,1-8.61.78,36.78,36.78,0,0,1-14.38-2.75,32.12,32.12,0,0,1-11.22-7.79,35.32,35.32,0,0,1-7.29-12.18,46.56,46.56,0,0,1-2.58-15.9,44.44,44.44,0,0,1,2.66-15.68,36,36,0,0,1,7.47-12.18,33.12,33.12,0,0,1,11.52-7.9,38.3,38.3,0,0,1,14.83-2.8,36.61,36.61,0,0,1,13.71,2.4,37,37,0,0,1,10.88,6.78l-1.66,2.4a1.5,1.5,0,0,1-1.33.64,4.25,4.25,0,0,1-2.08-1.18,27.46,27.46,0,0,0-4-2.58,33.42,33.42,0,0,0-6.37-2.59,31.5,31.5,0,0,0-9.15-1.17,32.56,32.56,0,0,0-12.51,2.34,27.77,27.77,0,0,0-9.76,6.72,31.06,31.06,0,0,0-6.37,10.67,45.08,45.08,0,0,0,0,28.43A31.38,31.38,0,0,0,635,204.4a27.35,27.35,0,0,0,9.57,6.66,30.41,30.41,0,0,0,11.92,2.32,43.57,43.57,0,0,0,7.23-.53,28.19,28.19,0,0,0,5.84-1.6,26.28,26.28,0,0,0,5-2.61A36.75,36.75,0,0,0,679,205a3.29,3.29,0,0,1,.54-.35A1.25,1.25,0,0,1,680.11,204.53Z" transform="translate(-29.7 -29.48)"/><path class="cls-1" d="M755.15,217.22h-4.21a1.89,1.89,0,0,1-1.23-.39,2.72,2.72,0,0,1-.75-1.05l-8.85-21.92H703l-8.85,21.92a2.25,2.25,0,0,1-.75,1,2,2,0,0,1-1.28.42H688l30.88-75.46h5.39Zm-16.69-27.41L723.1,151.68a37.68,37.68,0,0,1-1.55-4.48c-.21.85-.44,1.66-.69,2.42s-.52,1.47-.8,2.11L704.7,189.81Z" transform="translate(-29.7 -29.48)"/><path class="cls-1" d="M825.93,141.76v75.46h-2.56a2.42,2.42,0,0,1-1.15-.24,2.56,2.56,0,0,1-.88-.82l-49-65.5a29.68,29.68,0,0,1,.16,3v63.52h-4.8V141.76h2.72a2.91,2.91,0,0,1,1.15.18,2.63,2.63,0,0,1,.88.83l48.91,65.33a29.53,29.53,0,0,1-.16-3v-63.3Z" transform="translate(-29.7 -29.48)"/><path class="cls-1" d="M897.29,146.4H870.78v70.82h-5.5V146.4H838.62v-4.64h58.67Z" transform="translate(-29.7 -29.48)"/><path class="cls-1" d="M955.31,212.69l-.1,4.53H910V141.76h45.23v4.53H915.47V176.8h33.07v4.42H915.47v31.47Z" transform="translate(-29.7 -29.48)"/><path class="cls-2" d="M308.87,271.44H269.25L173.76,106.18a5.16,5.16,0,0,0-8.95,0L69.32,271.44H29.7l139.59-242Z" transform="translate(-29.7 -29.48)"/></svg>